<?xml version="1.0" encoding="UTF-8" standalone="no"?>
<!-- Created with Inkscape (http://www.inkscape.org/) -->

<svg
   width="297.94312mm"
   height="211.24843mm"
   viewBox="0 0 1126.0842 798.41928"
   version="1.1"
   id="svg1"
   inkscape:version="1.3 (0e150ed6c4, 2023-07-21)"
   sodipodi:docname="backgorund.svg"
   xml:space="preserve"
   inkscape:export-filename="Volleyball Home Screen.svg"
   inkscape:export-xdpi="96"
   inkscape:export-ydpi="96"
   xmlns:inkscape="http://www.inkscape.org/namespaces/inkscape"
   xmlns:sodipodi="http://sodipodi.sourceforge.net/DTD/sodipodi-0.dtd"
   xmlns:xlink="http://www.w3.org/1999/xlink"
   xmlns="http://www.w3.org/2000/svg"
   xmlns:svg="http://www.w3.org/2000/svg"><sodipodi:namedview
     id="namedview1"
     pagecolor="#ffffff"
     bordercolor="#000000"
     borderopacity="0.25"
     inkscape:showpageshadow="2"
     inkscape:pageopacity="0.0"
     inkscape:pagecheckerboard="0"
     inkscape:deskcolor="#d1d1d1"
     inkscape:document-units="mm"
     inkscape:zoom="0.83828443"
     inkscape:cx="561.8618"
     inkscape:cy="28.033445"
     inkscape:window-width="2148"
     inkscape:window-height="1701"
     inkscape:window-x="2392"
     inkscape:window-y="0"
     inkscape:window-maximized="0"
     inkscape:current-layer="layer1" /><defs
     id="defs1"><linearGradient
       id="linearGradient26"
       inkscape:collect="always"><stop
         style="stop-color:#d6f2f9;stop-opacity:1;"
         offset="0"
         id="stop26" /><stop
         style="stop-color:#c5e9f5;stop-opacity:0;"
         offset="1"
         id="stop27" /></linearGradient><linearGradient
       id="linearGradient4"
       inkscape:collect="always"><stop
         style="stop-color:#d6f2f9;stop-opacity:1;"
         offset="0"
         id="stop4" /><stop
         style="stop-color:#c5e9f5;stop-opacity:0;"
         offset="1"
         id="stop5" /></linearGradient><linearGradient
       inkscape:collect="always"
       xlink:href="#linearGradient4"
       id="linearGradient5"
       x1="182.38683"
       y1="291.60684"
       x2="187.68877"
       y2="1051.9054"
       gradientUnits="userSpaceOnUse"
       gradientTransform="matrix(1.0046828,0,0,1.0066173,-0.24113727,4.4929765)" /><linearGradient
       inkscape:collect="always"
       xlink:href="#linearGradient26"
       id="linearGradient27"
       x1="1179.152"
       y1="268.27829"
       x2="1185.5144"
       y2="1051.9054"
       gradientUnits="userSpaceOnUse"
       gradientTransform="translate(3.7917529,1.2639238)" /></defs><g
     inkscape:label="Layer 1"
     inkscape:groupmode="layer"
     id="layer1"
     transform="translate(-0.13254857,-3.4727869)"><rect
       style="display:inline;fill:url(#linearGradient5);fill-opacity:1;stroke:none;stroke-width:5.94898;stroke-dasharray:none;stroke-opacity:1"
       id="rect4"
       width="1126.0793"
       height="798.41925"
       x="1.8895723"
       y="5.5603833" /><rect
       style="fill:#80e5ff;stroke-width:0.706213"
       id="rect24"
       width="1121.7126"
       height="65.983101"
       x="0.74980789"
       y="562.3559" /><path
       id="path28"
       style="display:inline;fill:#ffaaaa;stroke-width:6.09939"
       d="m 115.58234,499.44299 h 1e-5 c 19.38602,0 34.99282,11.31493 34.99282,25.3698 v 50.73958 c 0,14.05487 -15.6068,25.3698 -34.99282,25.3698 h -1e-5 c -19.386021,0 -34.992817,-11.31493 -34.992817,-25.3698 v -50.73958 c 0,-14.05487 15.606796,-25.3698 34.992817,-25.3698 z" /><path
       id="rect6"
       style="display:inline;fill:#ff8080;stroke-width:6.09939"
       d="m 69.985634,520.96888 h 7e-6 c 19.386021,0 34.992819,11.31493 34.992819,25.3698 v 50.73958 c 0,14.05487 -15.606798,25.3698 -34.992819,25.3698 h -7e-6 c -19.386021,0 -34.992817,-11.31493 -34.992817,-25.3698 v -50.73958 c 0,-14.05487 15.606796,-25.3698 34.992817,-25.3698 z" /><rect
       style="fill:#5599ff;stroke-width:1.00157"
       id="rect2"
       width="1.0603884"
       height="6.3623309"
       x="548.22083"
       y="769.84204"
       rx="24.517105"
       ry="6.3623309" /><rect
       style="fill:#ffd42a;stroke-width:0;stroke-dasharray:none"
       id="rect3"
       width="1121.7091"
       height="166.75122"
       x="0.13254857"
       y="627.47974" /><path
       style="fill:#ffdd55;stroke:#ffffff;stroke-width:5.36179;stroke-dasharray:none;stroke-opacity:1"
       d="M 114.60375,790.62135 H 1028.6939 L 1003.76,676.09367 H 143.19615 Z"
       id="path2" /><g
       id="g39"
       transform="matrix(1,0,0,0.725,45.596706,149.64733)"
       style="fill:#ffaaaa"><path
         d="m 965.219,482.477 v 0 0 c 19.386,0 34.991,15.607 34.991,34.993 v 0 69.985 0 c 0,19.386 -15.605,34.993 -34.991,34.993 v 0 0 0 c -19.386,0 -34.993,-15.607 -34.993,-34.993 v 0 -69.985 0 c 0,-19.386 15.607,-34.993 34.993,-34.993 z"
         style="fill:#ffaaaa;stroke-width:7.16337"
         id="path29" /><path
         d="m 883.834,482.477 v 0 h 0.001 c 19.385,0 34.992,15.607 34.992,34.993 v 0 69.985 0 c 0,19.386 -15.607,34.993 -34.993,34.993 v 0 0 0 c -19.386,0 -34.993,-15.607 -34.993,-34.993 v 0 -69.985 -10e-4 c 0,-19.385 15.607,-34.992 34.993,-34.992 z"
         style="fill:#ffaaaa;stroke-width:7.16337"
         id="path30" /><path
         d="m 802.449,482.477 v 0 h 0.001 c 19.385,0 34.992,15.607 34.992,34.993 v 0 69.985 0 c 0,19.386 -15.607,34.993 -34.993,34.993 v 0 0 0 c -19.386,0 -34.993,-15.607 -34.993,-34.993 v 0 -69.985 -10e-4 c 0,-19.386 15.607,-34.992 34.993,-34.992 z"
         style="fill:#ffaaaa;stroke-width:7.16337"
         id="path31" /><path
         d="m 721.064,482.477 v 0 h 0.001 c 19.386,0 34.992,15.607 34.992,34.993 v 0 69.985 10e-4 c 0,19.385 -15.607,34.992 -34.993,34.992 v 0 0 0 c -19.386,0 -34.993,-15.607 -34.993,-34.993 v 0 -69.985 -10e-4 c 10e-4,-19.386 15.607,-34.992 34.993,-34.992 z"
         style="fill:#ffaaaa;stroke-width:7.16337"
         id="path32" /><path
         d="m 639.679,482.477 v 0 h 10e-4 c 19.386,0 34.992,15.607 34.992,34.993 v 0 69.985 10e-4 c 0,19.385 -15.607,34.992 -34.993,34.992 v 0 0 0 c -19.386,0 -34.992,-15.607 -34.992,-34.993 v 0 -69.985 -10e-4 c 0,-19.386 15.607,-34.992 34.992,-34.992 z"
         style="fill:#ffaaaa;stroke-width:7.16337"
         id="path33" /><path
         d="m 558.295,482.477 v 0 0 c 19.386,0 34.992,15.607 34.992,34.993 v 0 69.985 10e-4 c 0,19.385 -15.607,34.992 -34.992,34.992 v 0 h -10e-4 v 0 c -19.386,0 -34.992,-15.607 -34.992,-34.993 v 0 -69.985 -10e-4 c 0,-19.386 15.607,-34.992 34.993,-34.992 z"
         style="fill:#ffaaaa;stroke-width:7.16337"
         id="path34" /><path
         d="m 476.91,482.477 v 0 0 c 19.386,0 34.993,15.607 34.993,34.993 v 0 69.985 10e-4 c -0.001,19.386 -15.607,34.992 -34.993,34.992 v 0 h -0.001 v 0 c -19.386,0 -34.992,-15.607 -34.992,-34.993 v 0 -69.985 -10e-4 c 0,-19.386 15.607,-34.992 34.993,-34.992 z"
         style="fill:#ffaaaa;stroke-width:7.16337"
         id="path35" /><path
         d="m 395.525,482.477 v 0 0 c 19.386,0 34.993,15.607 34.993,34.993 v 0 69.985 10e-4 c -10e-4,19.386 -15.607,34.992 -34.993,34.992 v 0 h -10e-4 v 0 c -19.386,-10e-4 -34.992,-15.607 -34.992,-34.993 v 0 -69.985 -10e-4 c 0,-19.386 15.607,-34.992 34.993,-34.992 z"
         style="fill:#ffaaaa;stroke-width:7.16337"
         id="path36" /><path
         d="m 314.14,482.477 v 0 0 c 19.386,0 34.993,15.607 34.993,34.993 v 0 69.985 10e-4 c 0,19.386 -15.607,34.992 -34.993,34.992 v 0 h -10e-4 v 0 c -19.386,-10e-4 -34.992,-15.607 -34.992,-34.993 v 0 -69.985 -10e-4 c 0.001,-19.386 15.607,-34.992 34.993,-34.992 z"
         style="fill:#ffaaaa;stroke-width:7.16337"
         id="path37" /><path
         d="m 232.755,482.477 v 0 0 c 19.386,0 34.993,15.607 34.993,34.993 v 0 69.985 10e-4 c 0,19.386 -15.607,34.992 -34.993,34.992 v 0 0 h -0.001 c -19.386,-10e-4 -34.992,-15.607 -34.992,-34.993 v 0 -69.985 -10e-4 c 0.001,-19.386 15.608,-34.992 34.993,-34.992 z"
         style="fill:#ffaaaa;stroke-width:7.16337"
         id="path38" /><path
         d="m 151.37,482.477 v 0 h 0.001 c 19.386,0 34.992,15.607 34.992,34.993 v 0 69.985 10e-4 c 0,19.386 -15.607,34.992 -34.993,34.992 v 0 0 h -0.001 c -19.385,-10e-4 -34.991,-15.607 -34.991,-34.993 v -0.001 -69.984 -10e-4 c 0,-19.386 15.607,-34.992 34.992,-34.992 z"
         style="fill:#ffaaaa;stroke-width:7.16337"
         id="path39" /></g><path
       id="rect7"
       style="fill:#ff8080;stroke-width:6.09939"
       d="m 1046.6035,520.96888 v 0 c 19.3861,0 34.9929,11.31493 34.9929,25.3698 v 50.73958 c 0,14.05487 -15.6068,25.3698 -34.9929,25.3698 v 0 c -19.386,0 -34.9928,-11.31493 -34.9928,-25.3698 v -50.73958 c 0,-14.05487 15.6068,-25.3698 34.9928,-25.3698 z" /><g
       id="g17"
       transform="matrix(1,0,0,0.725,0,171.17322)"><path
         d="m 965.219,482.477 v 0 0 c 19.386,0 34.991,15.607 34.991,34.993 v 0 69.985 0 c 0,19.386 -15.605,34.993 -34.991,34.993 v 0 0 0 c -19.386,0 -34.993,-15.607 -34.993,-34.993 v 0 -69.985 0 c 0,-19.386 15.607,-34.993 34.993,-34.993 z"
         style="fill:#ff8080;stroke-width:7.16337"
         id="path7" /><path
         d="m 883.834,482.477 v 0 h 0.001 c 19.385,0 34.992,15.607 34.992,34.993 v 0 69.985 0 c 0,19.386 -15.607,34.993 -34.993,34.993 v 0 0 0 c -19.386,0 -34.993,-15.607 -34.993,-34.993 v 0 -69.985 -10e-4 c 0,-19.385 15.607,-34.992 34.993,-34.992 z"
         style="fill:#ff8080;stroke-width:7.16337"
         id="path8" /><path
         d="m 802.449,482.477 v 0 h 0.001 c 19.385,0 34.992,15.607 34.992,34.993 v 0 69.985 0 c 0,19.386 -15.607,34.993 -34.993,34.993 v 0 0 0 c -19.386,0 -34.993,-15.607 -34.993,-34.993 v 0 -69.985 -10e-4 c 0,-19.386 15.607,-34.992 34.993,-34.992 z"
         style="fill:#ff8080;stroke-width:7.16337"
         id="path9" /><path
         d="m 721.064,482.477 v 0 h 0.001 c 19.386,0 34.992,15.607 34.992,34.993 v 0 69.985 10e-4 c 0,19.385 -15.607,34.992 -34.993,34.992 v 0 0 0 c -19.386,0 -34.993,-15.607 -34.993,-34.993 v 0 -69.985 -10e-4 c 10e-4,-19.386 15.607,-34.992 34.993,-34.992 z"
         style="fill:#ff8080;stroke-width:7.16337"
         id="path10" /><path
         d="m 639.679,482.477 v 0 h 10e-4 c 19.386,0 34.992,15.607 34.992,34.993 v 0 69.985 10e-4 c 0,19.385 -15.607,34.992 -34.993,34.992 v 0 0 0 c -19.386,0 -34.992,-15.607 -34.992,-34.993 v 0 -69.985 -10e-4 c 0,-19.386 15.607,-34.992 34.992,-34.992 z"
         style="fill:#ff8080;stroke-width:7.16337"
         id="path11" /><path
         d="m 558.295,482.477 v 0 0 c 19.386,0 34.992,15.607 34.992,34.993 v 0 69.985 10e-4 c 0,19.385 -15.607,34.992 -34.992,34.992 v 0 h -10e-4 v 0 c -19.386,0 -34.992,-15.607 -34.992,-34.993 v 0 -69.985 -10e-4 c 0,-19.386 15.607,-34.992 34.993,-34.992 z"
         style="fill:#ff8080;stroke-width:7.16337"
         id="path12" /><path
         d="m 476.91,482.477 v 0 0 c 19.386,0 34.993,15.607 34.993,34.993 v 0 69.985 10e-4 c -0.001,19.386 -15.607,34.992 -34.993,34.992 v 0 h -0.001 v 0 c -19.386,0 -34.992,-15.607 -34.992,-34.993 v 0 -69.985 -10e-4 c 0,-19.386 15.607,-34.992 34.993,-34.992 z"
         style="fill:#ff8080;stroke-width:7.16337"
         id="path13" /><path
         d="m 395.525,482.477 v 0 0 c 19.386,0 34.993,15.607 34.993,34.993 v 0 69.985 10e-4 c -10e-4,19.386 -15.607,34.992 -34.993,34.992 v 0 h -10e-4 v 0 c -19.386,-10e-4 -34.992,-15.607 -34.992,-34.993 v 0 -69.985 -10e-4 c 0,-19.386 15.607,-34.992 34.993,-34.992 z"
         style="fill:#ff8080;stroke-width:7.16337"
         id="path14" /><path
         d="m 314.14,482.477 v 0 0 c 19.386,0 34.993,15.607 34.993,34.993 v 0 69.985 10e-4 c 0,19.386 -15.607,34.992 -34.993,34.992 v 0 h -10e-4 v 0 c -19.386,-10e-4 -34.992,-15.607 -34.992,-34.993 v 0 -69.985 -10e-4 c 0.001,-19.386 15.607,-34.992 34.993,-34.992 z"
         style="fill:#ff8080;stroke-width:7.16337"
         id="path15" /><path
         d="m 232.755,482.477 v 0 0 c 19.386,0 34.993,15.607 34.993,34.993 v 0 69.985 10e-4 c 0,19.386 -15.607,34.992 -34.993,34.992 v 0 0 h -0.001 c -19.386,-10e-4 -34.992,-15.607 -34.992,-34.993 v 0 -69.985 -10e-4 c 0.001,-19.386 15.608,-34.992 34.993,-34.992 z"
         style="fill:#ff8080;stroke-width:7.16337"
         id="path16" /><path
         d="m 151.37,482.477 v 0 h 0.001 c 19.386,0 34.992,15.607 34.992,34.993 v 0 69.985 10e-4 c 0,19.386 -15.607,34.992 -34.993,34.992 v 0 0 h -0.001 c -19.385,-10e-4 -34.991,-15.607 -34.991,-34.993 v -0.001 -69.984 -10e-4 c 0,-19.386 15.607,-34.992 34.992,-34.992 z"
         style="fill:#ff8080;stroke-width:7.16337"
         id="path17" /></g><rect
       style="fill:#ac9393;fill-opacity:1;stroke:none;stroke-width:4.76964;stroke-dasharray:none;stroke-opacity:1"
       id="rect5"
       width="1122.0619"
       height="81.649918"
       x="1.0603884"
       y="598.05908" /><g
       id="g8"
       transform="matrix(1,0,0,0.82282284,6.3623311,140.03496)"><rect
         style="fill:#4d4d4d;stroke-width:0.7872"
         id="rect1"
         width="48.777866"
         height="301.15033"
         x="549.28119"
         y="495.20145"
         rx="24.388933"
         ry="10.651629" /><rect
         style="fill:#b3b3b3;stroke-width:0.812586"
         id="rect8"
         width="23.328547"
         height="55.140202"
         x="561.74084"
         y="445.17545"
         rx="24.388933"
         ry="7.011199" /></g><rect
       style="fill:#f9f9f9;stroke-width:0.522492"
       id="rect9"
       width="166.48099"
       height="32.87204"
       x="184.5076"
       y="30.751265"
       rx="14.79706"
       ry="16.43602" /><rect
       style="fill:#f9f9f9;stroke-width:0.676251"
       id="rect9-6"
       width="278.88217"
       height="32.87204"
       x="116"
       y="63"
       rx="15.905847"
       ry="16.43602" /><rect
       style="fill:#f9f9f9;stroke-width:0.819264"
       id="rect10"
       width="409.30997"
       height="32.87204"
       x="42"
       y="95"
       rx="19.103153"
       ry="16.43602" /><path
       d="m 1123.4824,55.578126 v -32.25 H 1000.959 c -1.02469,0 -2.02524,0.115757 -2.99023,0.333984 -0.96498,0.218226 -1.8955,0.538373 -2.78125,0.953125 -0.88574,0.414752 -1.72671,0.924094 -2.51367,1.513672 -0.78696,0.589577 -1.51886,1.261204 -2.1875,2.003906 -0.66864,0.742702 -1.2739,1.555562 -1.80469,2.429688 -0.53078,0.874125 -0.98793,1.80912 -1.36132,2.792969 -0.3734,0.983848 -0.66291,2.016019 -0.85938,3.08789 -0.19646,1.071872 -0.29883,2.18212 -0.29883,3.320313 0,1.138193 0.10237,2.250394 0.29883,3.322266 0.19647,1.071871 0.48598,2.104041 0.85938,3.08789 0.37339,0.983849 0.83054,1.918843 1.36132,2.792969 0.53079,0.874126 1.13605,1.686986 1.80469,2.429688 0.66864,0.742701 1.40054,1.414328 2.1875,2.003906 0.78696,0.589577 1.62793,1.096966 2.51367,1.511719 0.61766,0.28922 1.28183,0.470763 1.93946,0.666015 z"
       style="fill:#f9f9f9;stroke-width:0.522492"
       id="path22" /><path
       d="M 1123.4824,56.201173 V 55.578126 H 997.12698 c 0.28543,0.08475 0.54972,0.223013 0.84179,0.289063 0.96499,0.218226 1.96554,0.333984 2.99023,0.333984 z"
       style="fill:#f9f9f9;stroke-width:0.676251"
       id="path21" /><path
       d="M 1123.4824,87.578127 V 56.201173 H 1000.959 c -1.02469,0 -2.02524,-0.115758 -2.99023,-0.333984 -0.29207,-0.06605 -0.55636,-0.204316 -0.84179,-0.289063 h -63.56836 c -1.10148,0 -2.1756,0.113805 -3.21289,0.332032 -1.0373,0.218226 -2.03617,0.540325 -2.98829,0.955078 -0.95211,0.414752 -1.85719,0.922141 -2.70312,1.511718 -0.84593,0.589578 -1.63282,1.261205 -2.35156,2.003907 -0.71875,0.742702 -1.3689,1.555562 -1.93946,2.429687 -0.57056,0.874126 -1.06151,1.80912 -1.46289,2.792969 -0.40137,0.983849 -0.71264,2.017973 -0.92383,3.089844 -0.21118,1.071871 -0.32226,2.182119 -0.32226,3.320313 0,1.138193 0.11108,2.248441 0.32226,3.320312 0.21119,1.071872 0.52246,2.104042 0.92383,3.087891 0.40138,0.983849 0.89233,1.918843 1.46289,2.792969 0.57056,0.874125 1.22071,1.688938 1.93946,2.43164 0.71874,0.742702 1.50563,1.414329 2.35156,2.003907 0.84593,0.589577 1.75101,1.096966 2.70312,1.511718 0.41448,0.180551 0.86904,0.271547 1.30078,0.416016 z"
       style="fill:#f9f9f9;stroke-width:0.676251"
       id="path20" /><path
       d="M 1123.4162,119.27311 V 87.273119 H 933.49241 c -1.10148,0 -2.1756,-0.11381 -3.21289,-0.33204 -0.58574,-0.12322 -1.12747,-0.35166 -1.68751,-0.53906 h -65.90234 c -1.32289,0 -2.61357,0.11381 -3.85938,0.33203 -1.2458,0.21823 -2.44634,0.54033 -3.58984,0.95508 -1.1435,0.41475 -2.22817,0.92214 -3.24414,1.51172 -1.01597,0.58958 -1.96295,1.2612 -2.82617,2.00391 -0.86322,0.7427 -1.64288,1.55556 -2.32813,2.42968 -0.68525,0.87413 -1.27575,1.80912 -1.75781,2.79297 -0.48206,0.98385 -0.85574,2.01797 -1.10937,3.08984 -0.25364,1.071871 -0.38672,2.182121 -0.38672,3.320311 0,1.1382 0.13308,2.24845 0.38672,3.32032 0.25363,1.07187 0.62731,2.10404 1.10937,3.08789 0.48206,0.98385 1.07256,1.91884 1.75781,2.79297 0.68525,0.87412 1.46491,1.68894 2.32813,2.43164 0.86322,0.7427 1.8102,1.41433 2.82617,2.0039 1.01597,0.58958 2.10064,1.09697 3.24414,1.51172 1.1435,0.41475 2.34404,0.73685 3.58984,0.95508 1.24581,0.21823 2.53649,0.33203 3.85938,0.33203 z"
       style="fill:#f9f9f9;stroke-width:0.819264"
       id="path18" /><g
       id="g23"
       style="display:inline"
       transform="translate(-29.348255,-55.108646)"><path
         style="opacity:1;fill:#ebdc70;fill-opacity:1;stroke:#000000;stroke-width:0;stroke-linecap:round;stroke-dasharray:none"
         d="m 566.23583,336.20253 41.07737,52.45265 c 0,0 48.02894,-34.12582 85.94652,-87.21043 37.91758,-53.08461 -127.02389,34.75778 -127.02389,34.75778 z"
         id="path24"
         transform="translate(29.348256,55.108647)" /><circle
         style="display:inline;opacity:1;fill:#ffd42a;stroke-width:5.94898"
         id="path1"
         cx="616.39148"
         cy="416.8573"
         r="32.054287" /><path
         style="display:inline;opacity:1;fill:#000000;fill-opacity:1;stroke:#000000;stroke-width:0;stroke-linecap:round;stroke-dasharray:none"
         d="m 611.81592,386.56181 c 0,0 -3.69175,11.75663 -1.14543,20.4597 2.64633,9.04492 4.50271,9.95335 4.50271,9.95335 0,0 -2.80432,5.25317 -5.80613,7.86 -3.0018,2.60684 -6.1616,4.66071 -6.1616,4.66071 0,0 -5.52965,-8.45247 -6.3196,-17.85286 -0.62184,-7.39987 -0.27648,-9.95337 -0.27648,-9.95337 0,0 0.99676,-9.028 2.17236,-9.99286 2.55587,-2.09769 12.7437,-6.28028 13.03417,-5.13467 z"
         id="path3"
         sodipodi:nodetypes="cscscscsc" /><path
         style="display:inline;opacity:1;fill:#000000;fill-opacity:1;stroke:#000000;stroke-width:0;stroke-linecap:round;stroke-dasharray:none"
         d="m 595.19351,394.63584 c 0.8863,-0.45827 -7.13121,4.44741 -9.43998,19.13132 -1.35683,8.62955 3.63475,18.95275 4.74792,19.8854 3.34585,-0.44562 6.7852,-1.19047 10.50128,-2.82082 0,0 -5.02988,-8.43099 -6.5633,-17.90245 -1.29482,-7.99768 0.5967,-18.34135 0.75408,-18.29345 z"
         id="path4"
         sodipodi:nodetypes="csccsc" /><path
         style="display:inline;opacity:1;fill:#000000;fill-opacity:1;stroke:#000000;stroke-width:0;stroke-linecap:round;stroke-dasharray:none"
         d="m 614.79962,386.17337 c -0.14985,-0.31843 13.66579,-0.4828 21.33771,7.12188 7.27899,7.2152 7.1514,8.40222 10.08235,16.36635 0,0 -12.02329,-9.31783 -19.21512,-10.94814 -5.29687,-1.20074 -12.51258,-2.07232 -13.85275,-2.03881 l -1.11716,0.0279 c 0.29821,-5.52043 1.69861,-7.66237 2.76497,-10.5292 z"
         id="path5"
         sodipodi:nodetypes="cscsscc" /><path
         style="display:inline;opacity:1;fill:#000000;fill-opacity:1;stroke:#000000;stroke-width:0;stroke-linecap:round;stroke-dasharray:none"
         d="m 612.09051,399.21618 c -0.15672,-0.2127 -0.018,7.03737 1.75952,10.4175 1.15894,2.20391 2.44445,5.9525 3.21183,5.94886 1.56957,-0.007 12.64219,0.51677 18.34931,4.60828 8.45699,6.06291 9.60757,8.12731 9.60757,8.12731 2.02588,-5.01664 2.27014,-9.69922 1.92709,-14.27168 0,0 -6.76085,-7.75408 -14.71856,-10.89229 -9.76572,-3.85123 -19.28306,-4.87299 -20.13676,-3.93798 z"
         id="path6"
         sodipodi:nodetypes="csssccsc" /><path
         style="display:inline;opacity:1;fill:#000000;fill-opacity:1;stroke:#000000;stroke-width:0;stroke-linecap:round;stroke-dasharray:none"
         d="m 617.31322,418.01236 c 5.68446,0.19553 11.3746,0.75371 16.47807,4.04969 0.17544,0 -4.55264,8.0156 -7.20566,10.08235 -2.44997,1.90857 -5.66274,6.03246 -14.49512,9.9427 -4.29,1.89925 -8.23068,2.70799 -8.65797,2.76496 -3.50656,-1.65395 -7.16074,-3.57201 -11.395,-8.93726 0,0 7.10329,-1.56117 10.38956,-3.1839 8.99312,-4.4407 14.88612,-14.71854 14.88612,-14.71854 z"
         id="path19"
         sodipodi:nodetypes="ccssccsc" /><path
         style="display:inline;opacity:1;fill:#000000;fill-opacity:1;stroke:#000000;stroke-width:0;stroke-linecap:round;stroke-dasharray:none"
         d="m 635.94182,423.31885 c 2.89491,2.26112 5.78673,4.52461 7.73633,7.51289 0.29187,-0.17689 -3.42233,7.64457 -11.59052,12.4563 -5.62096,3.3112 -11.29541,4.23628 -12.17702,4.13348 -5.16284,0.5968 -9.09468,-0.0884 -12.48423,-1.11716 -0.72394,0.42438 8.08024,-1.98885 18.07002,-9.88684 6.558,-5.1848 10.44542,-13.09867 10.44542,-13.09867 z"
         id="path23"
         sodipodi:nodetypes="ccsccsc" /></g><g
       id="g40"
       inkscape:label="Serving Space"><rect
         style="fill:url(#linearGradient27);fill-opacity:1;stroke-width:0.993925"
         id="rect25"
         width="290.92548"
         height="794.52344"
         x="1126.3828"
         y="0.38547647"
         ry="0" /><rect
         style="fill:#ac9393;fill-opacity:1;stroke:none;stroke-width:2.42648;stroke-dasharray:none;stroke-opacity:1"
         id="rect5-9"
         width="290.40302"
         height="81.649918"
         x="1124.8997"
         y="595.36084" /><rect
         style="fill:#ffd42a;fill-opacity:1;stroke-width:0.987674"
         id="rect26"
         width="296.17413"
         height="113.87983"
         x="1119.9773"
         y="678.81171" /></g><circle
       style="opacity:1;fill:#1a1a1a;fill-opacity:1;stroke:#000000;stroke-width:0;stroke-linecap:round;stroke-dasharray:none"
       id="path40"
       cx="55.271027"
       cy="544.5882"
       r="6.1616063" /><circle
       style="opacity:1;fill:#1a1a1a;fill-opacity:1;stroke:#000000;stroke-width:0;stroke-linecap:round;stroke-dasharray:none"
       id="circle40"
       cx="81.181374"
       cy="544.5882"
       r="6.1616063" /><g
       id="g44"
       transform="translate(47.716502,-24.454707)"
       style="fill:#4d4d4d"><path
         id="circle41"
         style="opacity:1;fill:#4d4d4d;stroke:#000000;stroke-width:0;stroke-linecap:round"
         d="m 61.432633,544.5882 a 6.1616063,6.1616063 0 0 1 -6.161606,6.1616 6.1616063,6.1616063 0 0 1 -6.161607,-6.1616 6.1616063,6.1616063 0 0 1 6.161607,-6.16161 6.1616063,6.1616063 0 0 1 6.161606,6.16161 z" /><path
         id="circle42"
         style="opacity:1;fill:#4d4d4d;stroke:#000000;stroke-width:0;stroke-linecap:round"
         d="m 87.34298,544.5882 a 6.1616063,6.1616063 0 0 1 -6.161606,6.1616 6.1616063,6.1616063 0 0 1 -6.161607,-6.1616 6.1616063,6.1616063 0 0 1 6.161607,-6.16161 6.1616063,6.1616063 0 0 1 6.161606,6.16161 z" /></g><g
       id="g45"
       transform="translate(1.7893688,2.3858251)"><path
         id="circle43"
         style="opacity:1;fill:#1a1a1a;stroke:#000000;stroke-width:0;stroke-linecap:round"
         d="m 959.62712,544.5882 a 6.1616063,6.1616063 0 0 1 -6.1616,6.1616 6.1616063,6.1616063 0 0 1 -6.16161,-6.1616 6.1616063,6.1616063 0 0 1 6.16161,-6.16161 6.1616063,6.1616063 0 0 1 6.1616,6.16161 z" /><path
         id="circle44"
         style="opacity:1;fill:#1a1a1a;stroke:#000000;stroke-width:0;stroke-linecap:round"
         d="m 985.53746,544.5882 a 6.1616063,6.1616063 0 0 1 -6.16161,6.1616 6.1616063,6.1616063 0 0 1 -6.1616,-6.1616 6.1616063,6.1616063 0 0 1 6.1616,-6.16161 6.1616063,6.1616063 0 0 1 6.16161,6.16161 z" /></g><g
       id="g46"
       transform="translate(237.3896,0.59645627)"><path
         id="path45"
         style="opacity:1;fill:#1a1a1a;stroke:#000000;stroke-width:0;stroke-linecap:round"
         d="m 61.432633,544.5882 a 6.1616063,6.1616063 0 0 1 -6.161606,6.1616 6.1616063,6.1616063 0 0 1 -6.161607,-6.1616 6.1616063,6.1616063 0 0 1 6.161607,-6.16161 6.1616063,6.1616063 0 0 1 6.161606,6.16161 z" /><path
         id="path46"
         style="opacity:1;fill:#1a1a1a;stroke:#000000;stroke-width:0;stroke-linecap:round"
         d="m 87.34298,544.5882 a 6.1616063,6.1616063 0 0 1 -6.161606,6.1616 6.1616063,6.1616063 0 0 1 -6.161607,-6.1616 6.1616063,6.1616063 0 0 1 6.161607,-6.16161 6.1616063,6.1616063 0 0 1 6.161606,6.16161 z" /></g><g
       id="g48"
       transform="translate(75.749946,-3.5787376)"><path
         id="path47"
         style="opacity:1;fill:#1a1a1a;stroke:#000000;stroke-width:0;stroke-linecap:round"
         d="m 61.432633,544.5882 a 6.1616063,6.1616063 0 0 1 -6.161606,6.1616 6.1616063,6.1616063 0 0 1 -6.161607,-6.1616 6.1616063,6.1616063 0 0 1 6.161607,-6.16161 6.1616063,6.1616063 0 0 1 6.161606,6.16161 z" /><path
         id="path48"
         style="opacity:1;fill:#1a1a1a;stroke:#000000;stroke-width:0;stroke-linecap:round"
         d="m 87.34298,544.5882 a 6.1616063,6.1616063 0 0 1 -6.161606,6.1616 6.1616063,6.1616063 0 0 1 -6.161607,-6.1616 6.1616063,6.1616063 0 0 1 6.161607,-6.16161 6.1616063,6.1616063 0 0 1 6.161606,6.16161 z" /></g><g
       id="g50"
       transform="translate(168.79713,1.1929125)"><path
         id="path49"
         style="opacity:1;fill:#1a1a1a;stroke:#000000;stroke-width:0;stroke-linecap:round"
         d="m 61.432633,544.5882 a 6.1616063,6.1616063 0 0 1 -6.161606,6.1616 6.1616063,6.1616063 0 0 1 -6.161607,-6.1616 6.1616063,6.1616063 0 0 1 6.161607,-6.16161 6.1616063,6.1616063 0 0 1 6.161606,6.16161 z" /><path
         id="path50"
         style="opacity:1;fill:#1a1a1a;stroke:#000000;stroke-width:0;stroke-linecap:round"
         d="m 87.34298,544.5882 a 6.1616063,6.1616063 0 0 1 -6.161606,6.1616 6.1616063,6.1616063 0 0 1 -6.161607,-6.1616 6.1616063,6.1616063 0 0 1 6.161607,-6.16161 6.1616063,6.1616063 0 0 1 6.161606,6.16161 z" /></g><g
       id="g52"
       transform="translate(322.08639,-1.1929125)"><path
         id="path51"
         style="opacity:1;fill:#1a1a1a;stroke:#000000;stroke-width:0;stroke-linecap:round"
         d="m 61.432633,544.5882 a 6.1616063,6.1616063 0 0 1 -6.161606,6.1616 6.1616063,6.1616063 0 0 1 -6.161607,-6.1616 6.1616063,6.1616063 0 0 1 6.161607,-6.16161 6.1616063,6.1616063 0 0 1 6.161606,6.16161 z" /><path
         id="path52"
         style="opacity:1;fill:#1a1a1a;stroke:#000000;stroke-width:0;stroke-linecap:round"
         d="m 87.34298,544.5882 a 6.1616063,6.1616063 0 0 1 -6.161606,6.1616 6.1616063,6.1616063 0 0 1 -6.161607,-6.1616 6.1616063,6.1616063 0 0 1 6.161607,-6.16161 6.1616063,6.1616063 0 0 1 6.161606,6.16161 z" /></g><g
       id="g54"
       transform="translate(404.99381,-3.5787376)"><path
         id="path53"
         style="opacity:1;fill:#1a1a1a;stroke:#000000;stroke-width:0;stroke-linecap:round"
         d="m 61.432633,544.5882 a 6.1616063,6.1616063 0 0 1 -6.161606,6.1616 6.1616063,6.1616063 0 0 1 -6.161607,-6.1616 6.1616063,6.1616063 0 0 1 6.161607,-6.16161 6.1616063,6.1616063 0 0 1 6.161606,6.16161 z" /><path
         id="path54"
         style="opacity:1;fill:#1a1a1a;stroke:#000000;stroke-width:0;stroke-linecap:round"
         d="m 87.34298,544.5882 a 6.1616063,6.1616063 0 0 1 -6.161606,6.1616 6.1616063,6.1616063 0 0 1 -6.161607,-6.1616 6.1616063,6.1616063 0 0 1 6.161607,-6.16161 6.1616063,6.1616063 0 0 1 6.161606,6.16161 z" /></g><g
       id="g56"
       transform="translate(480.14731,-0.59645627)"><path
         id="path55"
         style="opacity:1;fill:#1a1a1a;stroke:#000000;stroke-width:0;stroke-linecap:round"
         d="m 61.432633,544.5882 a 6.1616063,6.1616063 0 0 1 -6.161606,6.1616 6.1616063,6.1616063 0 0 1 -6.161607,-6.1616 6.1616063,6.1616063 0 0 1 6.161607,-6.16161 6.1616063,6.1616063 0 0 1 6.161606,6.16161 z" /><path
         id="path56"
         style="opacity:1;fill:#1a1a1a;stroke:#000000;stroke-width:0;stroke-linecap:round"
         d="m 87.34298,544.5882 a 6.1616063,6.1616063 0 0 1 -6.161606,6.1616 6.1616063,6.1616063 0 0 1 -6.161607,-6.1616 6.1616063,6.1616063 0 0 1 6.161607,-6.16161 6.1616063,6.1616063 0 0 1 6.161606,6.16161 z" /></g><g
       id="g58"
       transform="translate(574.3874,2.3858251)"><path
         id="path57"
         style="opacity:1;fill:#1a1a1a;stroke:#000000;stroke-width:0;stroke-linecap:round"
         d="m 61.432633,544.5882 a 6.1616063,6.1616063 0 0 1 -6.161606,6.1616 6.1616063,6.1616063 0 0 1 -6.161607,-6.1616 6.1616063,6.1616063 0 0 1 6.161607,-6.16161 6.1616063,6.1616063 0 0 1 6.161606,6.16161 z" /><path
         id="path58"
         style="opacity:1;fill:#1a1a1a;stroke:#000000;stroke-width:0;stroke-linecap:round"
         d="m 87.34298,544.5882 a 6.1616063,6.1616063 0 0 1 -6.161606,6.1616 6.1616063,6.1616063 0 0 1 -6.161607,-6.1616 6.1616063,6.1616063 0 0 1 6.161607,-6.16161 6.1616063,6.1616063 0 0 1 6.161606,6.16161 z" /></g><g
       id="g60"
       transform="translate(648.94443,-2.3858251)"><path
         id="path59"
         style="opacity:1;fill:#1a1a1a;stroke:#000000;stroke-width:0;stroke-linecap:round"
         d="m 61.432633,544.5882 a 6.1616063,6.1616063 0 0 1 -6.161606,6.1616 6.1616063,6.1616063 0 0 1 -6.161607,-6.1616 6.1616063,6.1616063 0 0 1 6.161607,-6.16161 6.1616063,6.1616063 0 0 1 6.161606,6.16161 z" /><path
         id="path60"
         style="opacity:1;fill:#1a1a1a;stroke:#000000;stroke-width:0;stroke-linecap:round"
         d="m 87.34298,544.5882 a 6.1616063,6.1616063 0 0 1 -6.161606,6.1616 6.1616063,6.1616063 0 0 1 -6.161607,-6.1616 6.1616063,6.1616063 0 0 1 6.161607,-6.16161 6.1616063,6.1616063 0 0 1 6.161606,6.16161 z" /></g><g
       id="g62"
       transform="translate(731.2554,-0.59645627)"><path
         id="path61"
         style="opacity:1;fill:#1a1a1a;stroke:#000000;stroke-width:0;stroke-linecap:round"
         d="m 61.432633,544.5882 a 6.1616063,6.1616063 0 0 1 -6.161606,6.1616 6.1616063,6.1616063 0 0 1 -6.161607,-6.1616 6.1616063,6.1616063 0 0 1 6.161607,-6.16161 6.1616063,6.1616063 0 0 1 6.161606,6.16161 z" /><path
         id="path62"
         style="opacity:1;fill:#1a1a1a;stroke:#000000;stroke-width:0;stroke-linecap:round"
         d="m 87.34298,544.5882 a 6.1616063,6.1616063 0 0 1 -6.161606,6.1616 6.1616063,6.1616063 0 0 1 -6.161607,-6.1616 6.1616063,6.1616063 0 0 1 6.161607,-6.16161 6.1616063,6.1616063 0 0 1 6.161606,6.16161 z" /></g><g
       id="g64"
       transform="translate(809.98762,4.7716502)"><path
         id="path63"
         style="opacity:1;fill:#1a1a1a;stroke:#000000;stroke-width:0;stroke-linecap:round"
         d="m 61.432633,544.5882 a 6.1616063,6.1616063 0 0 1 -6.161606,6.1616 6.1616063,6.1616063 0 0 1 -6.161607,-6.1616 6.1616063,6.1616063 0 0 1 6.161607,-6.16161 6.1616063,6.1616063 0 0 1 6.161606,6.16161 z" /><path
         id="path64"
         style="opacity:1;fill:#1a1a1a;stroke:#000000;stroke-width:0;stroke-linecap:round"
         d="m 87.34298,544.5882 a 6.1616063,6.1616063 0 0 1 -6.161606,6.1616 6.1616063,6.1616063 0 0 1 -6.161607,-6.1616 6.1616063,6.1616063 0 0 1 6.161607,-6.16161 6.1616063,6.1616063 0 0 1 6.161606,6.16161 z" /></g><g
       id="g66"
       transform="translate(975.20602,-2.3858251)"><path
         id="path65"
         style="opacity:1;fill:#1a1a1a;stroke:#000000;stroke-width:0;stroke-linecap:round"
         d="m 61.432633,544.5882 a 6.1616063,6.1616063 0 0 1 -6.161606,6.1616 6.1616063,6.1616063 0 0 1 -6.161607,-6.1616 6.1616063,6.1616063 0 0 1 6.161607,-6.16161 6.1616063,6.1616063 0 0 1 6.161606,6.16161 z" /><path
         id="path66"
         style="opacity:1;fill:#1a1a1a;stroke:#000000;stroke-width:0;stroke-linecap:round"
         d="m 87.34298,544.5882 a 6.1616063,6.1616063 0 0 1 -6.161606,6.1616 6.1616063,6.1616063 0 0 1 -6.161607,-6.1616 6.1616063,6.1616063 0 0 1 6.161607,-6.16161 6.1616063,6.1616063 0 0 1 6.161606,6.16161 z" /></g><g
       id="g68"
       transform="translate(125.25582,-20.875969)"
       style="fill:#4d4d4d"><path
         id="path67"
         style="opacity:1;fill:#4d4d4d;stroke:#000000;stroke-width:0;stroke-linecap:round"
         d="m 61.432633,544.5882 a 6.1616063,6.1616063 0 0 1 -6.161606,6.1616 6.1616063,6.1616063 0 0 1 -6.161607,-6.1616 6.1616063,6.1616063 0 0 1 6.161607,-6.16161 6.1616063,6.1616063 0 0 1 6.161606,6.16161 z" /><path
         id="path68"
         style="opacity:1;fill:#4d4d4d;stroke:#000000;stroke-width:0;stroke-linecap:round"
         d="m 87.34298,544.5882 a 6.1616063,6.1616063 0 0 1 -6.161606,6.1616 6.1616063,6.1616063 0 0 1 -6.161607,-6.1616 6.1616063,6.1616063 0 0 1 6.161607,-6.16161 6.1616063,6.1616063 0 0 1 6.161606,6.16161 z" /></g><g
       id="g70"
       transform="translate(202.19868,-26.840532)"
       style="fill:#4d4d4d"><path
         id="path69"
         style="opacity:1;fill:#4d4d4d;stroke:#000000;stroke-width:0;stroke-linecap:round"
         d="m 61.432633,544.5882 a 6.1616063,6.1616063 0 0 1 -6.161606,6.1616 6.1616063,6.1616063 0 0 1 -6.161607,-6.1616 6.1616063,6.1616063 0 0 1 6.161607,-6.16161 6.1616063,6.1616063 0 0 1 6.161606,6.16161 z" /><path
         id="path70"
         style="opacity:1;fill:#4d4d4d;stroke:#000000;stroke-width:0;stroke-linecap:round"
         d="m 87.34298,544.5882 a 6.1616063,6.1616063 0 0 1 -6.161606,6.1616 6.1616063,6.1616063 0 0 1 -6.161607,-6.1616 6.1616063,6.1616063 0 0 1 6.161607,-6.16161 6.1616063,6.1616063 0 0 1 6.161606,6.16161 z" /></g><g
       id="g72"
       transform="translate(294.05295,-23.858251)"
       style="fill:#4d4d4d"><path
         id="path71"
         style="opacity:1;fill:#4d4d4d;stroke:#000000;stroke-width:0;stroke-linecap:round"
         d="m 61.432633,544.5882 a 6.1616063,6.1616063 0 0 1 -6.161606,6.1616 6.1616063,6.1616063 0 0 1 -6.161607,-6.1616 6.1616063,6.1616063 0 0 1 6.161607,-6.16161 6.1616063,6.1616063 0 0 1 6.161606,6.16161 z" /><path
         id="path72"
         style="opacity:1;fill:#4d4d4d;stroke:#000000;stroke-width:0;stroke-linecap:round"
         d="m 87.34298,544.5882 a 6.1616063,6.1616063 0 0 1 -6.161606,6.1616 6.1616063,6.1616063 0 0 1 -6.161607,-6.1616 6.1616063,6.1616063 0 0 1 6.161607,-6.16161 6.1616063,6.1616063 0 0 1 6.161606,6.16161 z" /></g><g
       id="g74"
       transform="translate(373.38163,-28.033444)"
       style="fill:#4d4d4d"><path
         id="path73"
         style="opacity:1;fill:#4d4d4d;stroke:#000000;stroke-width:0;stroke-linecap:round"
         d="m 61.432633,544.5882 a 6.1616063,6.1616063 0 0 1 -6.161606,6.1616 6.1616063,6.1616063 0 0 1 -6.161607,-6.1616 6.1616063,6.1616063 0 0 1 6.161607,-6.16161 6.1616063,6.1616063 0 0 1 6.161606,6.16161 z" /><path
         id="path74"
         style="opacity:1;fill:#4d4d4d;stroke:#000000;stroke-width:0;stroke-linecap:round"
         d="m 87.34298,544.5882 a 6.1616063,6.1616063 0 0 1 -6.161606,6.1616 6.1616063,6.1616063 0 0 1 -6.161607,-6.1616 6.1616063,6.1616063 0 0 1 6.161607,-6.16161 6.1616063,6.1616063 0 0 1 6.161606,6.16161 z" /></g><g
       id="g76"
       transform="translate(452.71032,-22.665338)"
       style="fill:#4d4d4d"><path
         id="path75"
         style="opacity:1;fill:#4d4d4d;stroke:#000000;stroke-width:0;stroke-linecap:round"
         d="m 61.432633,544.5882 a 6.1616063,6.1616063 0 0 1 -6.161606,6.1616 6.1616063,6.1616063 0 0 1 -6.161607,-6.1616 6.1616063,6.1616063 0 0 1 6.161607,-6.16161 6.1616063,6.1616063 0 0 1 6.161606,6.16161 z" /><path
         id="path76"
         style="opacity:1;fill:#4d4d4d;stroke:#000000;stroke-width:0;stroke-linecap:round"
         d="m 87.34298,544.5882 a 6.1616063,6.1616063 0 0 1 -6.161606,6.1616 6.1616063,6.1616063 0 0 1 -6.161607,-6.1616 6.1616063,6.1616063 0 0 1 6.161607,-6.16161 6.1616063,6.1616063 0 0 1 6.161606,6.16161 z" /></g><g
       id="g78"
       transform="translate(542.77522,-25.647619)"
       style="fill:#4d4d4d"><path
         id="path77"
         style="opacity:1;fill:#4d4d4d;stroke:#000000;stroke-width:0;stroke-linecap:round"
         d="m 61.432633,544.5882 a 6.1616063,6.1616063 0 0 1 -6.161606,6.1616 6.1616063,6.1616063 0 0 1 -6.161607,-6.1616 6.1616063,6.1616063 0 0 1 6.161607,-6.16161 6.1616063,6.1616063 0 0 1 6.161606,6.16161 z" /><path
         id="path78"
         style="opacity:1;fill:#4d4d4d;stroke:#000000;stroke-width:0;stroke-linecap:round"
         d="m 87.34298,544.5882 a 6.1616063,6.1616063 0 0 1 -6.161606,6.1616 6.1616063,6.1616063 0 0 1 -6.161607,-6.1616 6.1616063,6.1616063 0 0 1 6.161607,-6.16161 6.1616063,6.1616063 0 0 1 6.161606,6.16161 z" /></g><g
       id="g80"
       transform="translate(612.5606,-23.261794)"
       style="fill:#4d4d4d"><path
         id="path79"
         style="opacity:1;fill:#4d4d4d;stroke:#000000;stroke-width:0;stroke-linecap:round"
         d="m 61.432633,544.5882 a 6.1616063,6.1616063 0 0 1 -6.161606,6.1616 6.1616063,6.1616063 0 0 1 -6.161607,-6.1616 6.1616063,6.1616063 0 0 1 6.161607,-6.16161 6.1616063,6.1616063 0 0 1 6.161606,6.16161 z" /><path
         id="path80"
         style="opacity:1;fill:#4d4d4d;stroke:#000000;stroke-width:0;stroke-linecap:round"
         d="m 87.34298,544.5882 a 6.1616063,6.1616063 0 0 1 -6.161606,6.1616 6.1616063,6.1616063 0 0 1 -6.161607,-6.1616 6.1616063,6.1616063 0 0 1 6.161607,-6.16161 6.1616063,6.1616063 0 0 1 6.161606,6.16161 z" /></g><g
       id="g82"
       transform="translate(690.69637,-27.436988)"
       style="fill:#4d4d4d"><path
         id="path81"
         style="opacity:1;fill:#4d4d4d;stroke:#000000;stroke-width:0;stroke-linecap:round"
         d="m 61.432633,544.5882 a 6.1616063,6.1616063 0 0 1 -6.161606,6.1616 6.1616063,6.1616063 0 0 1 -6.161607,-6.1616 6.1616063,6.1616063 0 0 1 6.161607,-6.16161 6.1616063,6.1616063 0 0 1 6.161606,6.16161 z" /><path
         id="path82"
         style="opacity:1;fill:#4d4d4d;stroke:#000000;stroke-width:0;stroke-linecap:round"
         d="m 87.34298,544.5882 a 6.1616063,6.1616063 0 0 1 -6.161606,6.1616 6.1616063,6.1616063 0 0 1 -6.161607,-6.1616 6.1616063,6.1616063 0 0 1 6.161607,-6.16161 6.1616063,6.1616063 0 0 1 6.161606,6.16161 z" /></g><g
       id="g84"
       transform="translate(780.16482,-26.244076)"
       style="fill:#4d4d4d"><path
         id="path83"
         style="opacity:1;fill:#4d4d4d;stroke:#000000;stroke-width:0;stroke-linecap:round"
         d="m 61.432633,544.5882 a 6.1616063,6.1616063 0 0 1 -6.161606,6.1616 6.1616063,6.1616063 0 0 1 -6.161607,-6.1616 6.1616063,6.1616063 0 0 1 6.161607,-6.16161 6.1616063,6.1616063 0 0 1 6.161606,6.16161 z" /><path
         id="path84"
         style="opacity:1;fill:#4d4d4d;stroke:#000000;stroke-width:0;stroke-linecap:round"
         d="m 87.34298,544.5882 a 6.1616063,6.1616063 0 0 1 -6.161606,6.1616 6.1616063,6.1616063 0 0 1 -6.161607,-6.1616 6.1616063,6.1616063 0 0 1 6.161607,-6.16161 6.1616063,6.1616063 0 0 1 6.161606,6.16161 z" /></g><g
       id="g86"
       transform="translate(854.72185,-26.244076)"
       style="fill:#4d4d4d"><path
         id="path85"
         style="opacity:1;fill:#4d4d4d;stroke:#000000;stroke-width:0;stroke-linecap:round"
         d="m 61.432633,544.5882 a 6.1616063,6.1616063 0 0 1 -6.161606,6.1616 6.1616063,6.1616063 0 0 1 -6.161607,-6.1616 6.1616063,6.1616063 0 0 1 6.161607,-6.16161 6.1616063,6.1616063 0 0 1 6.161606,6.16161 z" /><path
         id="path86"
         style="opacity:1;fill:#4d4d4d;stroke:#000000;stroke-width:0;stroke-linecap:round"
         d="m 87.34298,544.5882 a 6.1616063,6.1616063 0 0 1 -6.161606,6.1616 6.1616063,6.1616063 0 0 1 -6.161607,-6.1616 6.1616063,6.1616063 0 0 1 6.161607,-6.16161 6.1616063,6.1616063 0 0 1 6.161606,6.16161 z" /></g><g
       id="g88"
       transform="translate(938.22573,-22.665338)"
       style="fill:#4d4d4d"><path
         id="path87"
         style="opacity:1;fill:#4d4d4d;stroke:#000000;stroke-width:0;stroke-linecap:round"
         d="m 61.432633,544.5882 a 6.1616063,6.1616063 0 0 1 -6.161606,6.1616 6.1616063,6.1616063 0 0 1 -6.161607,-6.1616 6.1616063,6.1616063 0 0 1 6.161607,-6.16161 6.1616063,6.1616063 0 0 1 6.161606,6.16161 z" /><path
         id="path88"
         style="opacity:1;fill:#4d4d4d;stroke:#000000;stroke-width:0;stroke-linecap:round"
         d="m 87.34298,544.5882 a 6.1616063,6.1616063 0 0 1 -6.161606,6.1616 6.1616063,6.1616063 0 0 1 -6.161607,-6.1616 6.1616063,6.1616063 0 0 1 6.161607,-6.16161 6.1616063,6.1616063 0 0 1 6.161606,6.16161 z" /></g><g
       id="g90"
       transform="translate(938.22573,-22.665338)"
       style="fill:#4d4d4d"><path
         id="path89"
         style="opacity:1;fill:#4d4d4d;stroke:#000000;stroke-width:0;stroke-linecap:round"
         d="m 61.432633,544.5882 a 6.1616063,6.1616063 0 0 1 -6.161606,6.1616 6.1616063,6.1616063 0 0 1 -6.161607,-6.1616 6.1616063,6.1616063 0 0 1 6.161607,-6.16161 6.1616063,6.1616063 0 0 1 6.161606,6.16161 z" /><path
         id="path90"
         style="opacity:1;fill:#4d4d4d;stroke:#000000;stroke-width:0;stroke-linecap:round"
         d="m 87.34298,544.5882 a 6.1616063,6.1616063 0 0 1 -6.161606,6.1616 6.1616063,6.1616063 0 0 1 -6.161607,-6.1616 6.1616063,6.1616063 0 0 1 6.161607,-6.16161 6.1616063,6.1616063 0 0 1 6.161606,6.16161 z" /></g></g></svg>
